# xmcd
#
# Track frame offsets:
#	150
#	12391
#	33698
#	46421
#	75116
#	96251
#	117542
#	140466
#	157787
#	172335
#	195068
#	216408
#
# Disc length: 3136 seconds
#
# Revision: 0
# Processed by: cddbd v1.4PL0 Copyright (c) Steve Scherf et al.
# Submitted via: dBpowerAMP V4.0
#
DISCID=9c0c3e0c
DTITLE=Gaucha - 32º Califórnia da Canção Nativa de Uruguaiana RS - 32º Califórnia da Canção Nativa de Uruguaiana RS
DYEAR=2003
DGENRE=Gauchesca
TTITLE0=O "Revorve" do Tropeiro
TTITLE1=No Tempo do Quintino
TTITLE2=O Tombo
TTITLE3=De Canto e Tropa
TTITLE4=Combate de Campo
TTITLE5=Despedida
TTITLE6=Apaisanado
TTITLE7=Pras Encilhas de Um Palheiro
TTITLE8=O Cantar Que Nos "Hermana"
TTITLE9=Rio Grande Eterno
TTITLE10=Beira D'Estrada
TTITLE11=No Universo de Borges
EXTD=
EXTT0=
EXTT1=
EXTT2=
EXTT3=
EXTT4=
EXTT5=
EXTT6=
EXTT7=
EXTT8=
EXTT9=
EXTT10=
EXTT11=
PLAYORDER=
